<svg width="710" height="860" viewBox="0 0 710 860" fill="none" xmlns="http://www.w3.org/2000/svg">
<g clip-path="url(#clip0_12268_66196)">
<path opacity="0.05" d="M4.52368 421.706C-5.73465 469.957 18.2534 512.62 33.5709 539.915C94.031 647.421 236.273 737.299 392.101 724.054C428.576 720.927 612.41 699.769 678.655 545.605C737.24 409.401 665.884 257.962 571.888 179.749C494.011 115.022 364.69 70.7473 276.122 117.564C220.442 147.045 239.376 181.576 148.095 272.312C69.1545 350.91 17.0994 362.738 4.52368 421.706Z" fill="white"/>
<path opacity="0.1" d="M146.593 721.156C178.826 755.943 225.637 760.724 255.569 763.806C373.533 775.844 522.945 713.855 598.849 584.071C616.595 553.678 701.794 397.504 617.347 260.06C542.769 138.583 384.247 110.772 270.725 141.311C176.728 166.654 70.3078 243.75 58.0394 339.276C50.3637 399.358 87.9853 403.607 108.724 525.591C126.761 631.157 107.223 678.612 146.593 721.156Z" fill="white"/>
<circle cx="63.6763" cy="745.737" r="9.68021" fill="#2A3D6E"/>
<circle cx="644.489" cy="594.483" r="9.68021" fill="white"/>
<circle cx="145.958" cy="126.203" r="9.68021" fill="white"/>
<path d="M604.574 206.744C600.396 210.283 595.408 212.181 590.029 212.47C588.23 212.637 586.665 211.247 586.612 209.352C586.445 207.553 587.835 205.988 589.73 205.935C593.632 205.733 597.429 204.262 600.478 201.679C601.268 201.01 601.85 200.323 602.545 199.54C603.709 198.166 605.716 198.017 607.09 199.181C608.464 200.345 608.613 202.353 607.449 203.726C606.511 204.909 605.591 205.883 604.574 206.744Z" fill="#2A3D6E"/>
<path d="M72.9447 339.251C77.5475 342.217 80.815 346.436 82.6587 351.498C83.3414 353.171 82.4678 355.073 80.6708 355.675C78.9982 356.358 77.0962 355.484 76.4937 353.687C75.1641 350.013 72.6513 346.809 69.2925 344.644C68.4217 344.083 67.5951 343.726 66.6441 343.289C64.991 342.576 64.264 340.699 64.9773 339.046C65.6907 337.392 67.5678 336.665 69.221 337.379C70.6254 337.932 71.8251 338.529 72.9447 339.251Z" fill="white"/>
<path d="M584.787 747.029C589.389 749.996 592.657 754.215 594.5 759.277C595.183 760.949 594.31 762.851 592.513 763.454C590.84 764.137 588.938 763.263 588.335 761.466C587.006 757.792 584.493 754.588 581.134 752.423C580.263 751.862 579.437 751.505 578.486 751.068C576.833 750.355 576.106 748.477 576.819 746.824C577.532 745.171 579.41 744.444 581.063 745.158C582.467 745.711 583.667 746.308 584.787 747.029Z" fill="white"/>
<g clip-path="url(#clip1_12268_66196)">
<path d="M351.705 198.481C320.158 203.756 201.389 223.608 147.469 331.488C95.4192 435.569 123.851 581.622 212.206 639.136C354.084 731.419 580.805 550.256 570.271 476.124C566.363 448.388 530.284 443.623 524.224 405.734C514.652 345.782 597.683 313.452 590.037 268.87C581.145 217.425 456.825 180.898 351.705 198.481Z" fill="white"/>
<path d="M464.47 538.288C453.709 530.631 442.608 523.484 431.337 516.678C408.399 502.838 384.611 490.473 360.653 478.505C348.08 472.21 335.11 466.481 322.31 460.639C309.453 454.74 296.539 448.898 283.626 443.056C271.845 437.724 260.065 432.392 248.227 427.004C209.034 343.74 165.706 249.471 171.03 249.471L572.932 238.071C582.447 238.071 590.15 245.785 590.15 255.314V534.034C590.15 543.506 582.39 551.277 572.932 551.277H483.048C476.931 546.796 470.587 542.655 464.47 538.288Z" fill="#D3D9E8"/>
<path d="M572.932 552.071H482.764L482.538 551.901C479.14 549.405 475.572 546.966 472.117 544.584C469.455 542.769 466.679 540.84 463.961 538.912C454.049 531.879 443.231 524.789 430.828 517.302C406.643 502.725 381.553 489.85 360.2 479.13C350.459 474.252 340.377 469.657 330.579 465.233C327.69 463.929 324.802 462.624 321.913 461.263C309.113 455.421 296.313 449.579 283.229 443.68C271.732 438.462 259.838 433.073 247.831 427.628L247.548 427.515L247.434 427.231C166.272 255.087 169.104 250.663 170.011 249.188C170.237 248.848 170.634 248.621 171.03 248.621L572.875 237.22C582.9 237.22 590.999 245.331 590.999 255.314V534.034C590.999 543.96 582.9 552.071 572.932 552.071ZM483.331 550.369H572.932C581.994 550.369 589.3 543.053 589.3 533.977V255.314C589.3 246.295 581.937 238.922 572.932 238.922L171.426 250.322C171.257 252.421 174.428 263.368 195.214 310.105C208.128 339.145 226.195 378.282 248.907 426.324C260.801 431.712 272.582 437.1 283.966 442.262C297.049 448.217 309.849 454.003 322.649 459.845C325.538 461.149 328.426 462.511 331.315 463.815C341.113 468.239 351.195 472.834 360.993 477.768C382.346 488.488 407.493 501.364 431.734 515.997C444.138 523.484 455.012 530.574 464.924 537.664C467.586 539.593 470.361 541.464 473.023 543.279C476.478 545.548 479.933 547.93 483.331 550.369Z" fill="#2A3D6E"/>
<path d="M157.663 238.185H564.719C573.725 238.185 580.974 245.501 580.974 254.463V533.921C580.974 542.939 573.668 550.199 564.719 550.199H157.663C148.658 550.199 141.408 542.883 141.408 533.921V254.52C141.408 245.501 148.714 238.185 157.663 238.185Z" fill="white"/>
<path d="M169.614 249.358H552.996C561.435 249.358 568.345 256.108 568.345 264.503V524.052C568.345 532.389 561.491 539.196 552.996 539.196H169.614C161.175 539.196 154.266 532.446 154.266 524.052V264.503C154.266 256.108 161.119 249.358 169.614 249.358Z" fill="#E6EBF8"/>
<path d="M564.719 551.107H157.663C148.205 551.107 140.559 543.393 140.559 533.978V254.52C140.559 245.048 148.261 237.391 157.663 237.391L427.372 237.334C427.826 237.334 428.222 237.731 428.222 238.185C428.222 238.638 427.826 239.035 427.372 239.035H157.663C149.168 239.035 142.258 245.955 142.258 254.463V533.921C142.258 542.429 149.168 549.349 157.663 549.349H564.719C573.215 549.349 580.125 542.429 580.125 533.921V254.52C580.125 246.012 573.215 239.092 564.719 239.092L525.356 238.752C524.903 238.752 524.506 238.355 524.506 237.901C524.506 237.447 524.903 237.05 525.356 237.05L564.719 237.391C574.178 237.391 581.824 245.104 581.824 254.52V533.978C581.824 543.45 574.121 551.107 564.719 551.107Z" fill="#2A3D6E"/>
<path d="M567.722 274.599L568.175 265.126C568.175 256.789 561.038 250.096 552.543 250.096H169.331C160.892 250.096 153.926 256.732 153.926 265.126L153.473 276.754L567.722 274.599Z" fill="#D3D9E8"/>
<path d="M170.521 268.019C173.243 268.019 175.449 265.81 175.449 263.085C175.449 260.359 173.243 258.15 170.521 258.15C167.8 258.15 165.594 260.359 165.594 263.085C165.594 265.81 167.8 268.019 170.521 268.019Z" fill="#E6EBF8"/>
<path d="M186.211 267.735C188.932 267.735 191.138 265.526 191.138 262.801C191.138 260.076 188.932 257.866 186.211 257.866C183.489 257.866 181.283 260.076 181.283 262.801C181.283 265.526 183.489 267.735 186.211 267.735Z" fill="#E6EBF8"/>
<path d="M203.201 268.359C205.922 268.359 208.128 266.15 208.128 263.425C208.128 260.7 205.922 258.49 203.201 258.49C200.48 258.49 198.273 260.7 198.273 263.425C198.273 266.15 200.48 268.359 203.201 268.359Z" fill="#E6EBF8"/>
<path d="M251.456 363.251H194.932V377.602H251.456V363.251Z" fill="#D3D9E8"/>
<path d="M487.07 363.875H286.176V378.226H487.07V363.875Z" fill="#D3D9E8"/>
<path d="M250.833 434.775H194.309V449.125H250.833V434.775Z" fill="#D3D9E8"/>
<path d="M486.39 435.399H285.496V449.749H486.39V435.399Z" fill="#D3D9E8"/>
<path d="M249.53 504.994H193.006V519.344H249.53V504.994Z" fill="#D3D9E8"/>
<path d="M485.086 505.618H284.191V519.968H485.086V505.618Z" fill="#D3D9E8"/>
<path d="M338.507 388.151H285.891V402.501H338.507V388.151Z" fill="#D3D9E8"/>
<path d="M532.832 388.775H345.814V403.125H532.832V388.775Z" fill="#D3D9E8"/>
<path d="M337.886 411.747H285.27V426.097H337.886V411.747Z" fill="#D3D9E8"/>
<path d="M532.209 412.428H345.191V426.778H532.209V412.428Z" fill="#D3D9E8"/>
<path d="M251.456 293.77H194.932V308.12H251.456V293.77Z" fill="#D3D9E8"/>
<path d="M487.07 294.394H286.176V308.744H487.07V294.394Z" fill="#D3D9E8"/>
<path d="M338.566 318.67H285.949V333.02H338.566V318.67Z" fill="#D3D9E8"/>
<path d="M532.832 319.294H345.814V333.644H532.832V319.294Z" fill="#D3D9E8"/>
<path d="M337.886 342.322H285.27V356.672H337.886V342.322Z" fill="#D3D9E8"/>
<path d="M532.209 342.946H345.191V357.296H532.209V342.946Z" fill="#D3D9E8"/>
<path d="M337.886 458.994H285.27V473.344H337.886V458.994Z" fill="#D3D9E8"/>
<path d="M532.209 459.675H345.191V474.025H532.209V459.675Z" fill="#D3D9E8"/>
<path d="M337.206 482.646H284.59V496.997H337.206V482.646Z" fill="#D3D9E8"/>
<path d="M531.53 483.271H344.512V497.621H531.53V483.271Z" fill="#D3D9E8"/>
<path d="M250.323 357.523C269.216 357.523 284.532 342.185 284.532 323.264C284.532 304.343 269.216 289.005 250.323 289.005C231.429 289.005 216.113 304.343 216.113 323.264C216.113 342.185 231.429 357.523 250.323 357.523Z" fill="white"/>
<path d="M250.322 358.374C231.009 358.374 215.264 342.606 215.264 323.264C215.264 303.923 231.009 288.155 250.322 288.155C269.636 288.155 285.381 303.923 285.381 323.264C285.381 342.606 269.693 358.374 250.322 358.374ZM250.322 289.856C231.915 289.856 216.963 304.83 216.963 323.264C216.963 341.698 231.915 356.672 250.322 356.672C268.73 356.672 283.682 341.698 283.682 323.264C283.682 304.83 268.73 289.856 250.322 289.856Z" fill="#2A3D6E"/>
<path d="M399.11 425.927C418.003 425.927 433.319 410.588 433.319 391.668C433.319 372.747 418.003 357.409 399.11 357.409C380.216 357.409 364.9 372.747 364.9 391.668C364.9 410.588 380.216 425.927 399.11 425.927Z" fill="white"/>
<path d="M399.11 426.778C379.796 426.778 364.051 411.009 364.051 391.668C364.051 372.327 379.796 356.559 399.11 356.559C418.423 356.559 434.168 372.327 434.168 391.668C434.168 411.009 418.48 426.778 399.11 426.778ZM399.11 358.26C380.702 358.26 365.75 373.234 365.75 391.668C365.75 410.102 380.702 425.076 399.11 425.076C417.517 425.076 432.469 410.102 432.469 391.668C432.469 373.234 417.517 358.26 399.11 358.26Z" fill="#2A3D6E"/>
<path d="M341.114 359.678C360.007 359.678 375.323 344.34 375.323 325.419C375.323 306.499 360.007 291.161 341.114 291.161C322.22 291.161 306.904 306.499 306.904 325.419C306.904 344.34 322.22 359.678 341.114 359.678Z" fill="white"/>
<path d="M341.113 360.529C321.8 360.529 306.055 344.761 306.055 325.42C306.055 306.078 321.8 290.31 341.113 290.31C360.427 290.31 376.172 306.078 376.172 325.42C376.172 344.818 360.484 360.529 341.113 360.529ZM341.113 292.012C322.706 292.012 307.754 306.986 307.754 325.42C307.754 343.853 322.706 358.827 341.113 358.827C359.521 358.827 374.473 343.853 374.473 325.42C374.473 306.986 359.521 292.012 341.113 292.012Z" fill="#2A3D6E"/>
<path d="M548.974 288.381C548.917 288.041 548.577 287.814 548.237 287.814L543.253 287.757C542.97 287.757 542.687 287.587 542.573 287.304C542.177 286.396 541.724 285.545 541.271 284.695C541.101 284.468 541.158 284.127 541.271 283.9L544.159 279.817C544.386 279.533 544.329 279.136 544.103 278.909L541.158 275.676C540.931 275.393 540.535 275.336 540.251 275.506L535.89 277.945C535.664 278.115 535.324 278.058 535.097 277.888C534.304 277.321 533.511 276.754 532.662 276.3C532.435 276.13 532.265 275.903 532.265 275.619L532.719 270.628C532.775 270.288 532.549 269.947 532.209 269.834L528.074 268.473C527.734 268.359 527.395 268.529 527.225 268.813L524.676 273.124C524.506 273.351 524.223 273.521 523.94 273.464C522.977 273.351 522.014 273.294 521.051 273.294C520.768 273.294 520.485 273.124 520.371 272.897L518.276 268.359C518.106 268.019 517.766 267.849 517.426 267.962L513.178 268.87C512.839 268.926 512.612 269.21 512.612 269.607L512.555 274.598C512.555 274.882 512.386 275.166 512.102 275.279C511.196 275.676 510.347 276.13 509.497 276.584C509.27 276.754 508.931 276.697 508.704 276.584L504.626 273.691C504.343 273.464 503.946 273.521 503.72 273.748L500.492 276.697C500.208 276.924 500.152 277.321 500.322 277.605L502.757 281.972C502.927 282.199 502.87 282.539 502.7 282.766C502.134 283.56 501.568 284.354 501.115 285.205C500.945 285.432 500.718 285.602 500.435 285.602L495.451 285.148C495.111 285.092 494.771 285.318 494.658 285.659L493.299 289.799C493.185 290.14 493.355 290.48 493.638 290.65L497.943 293.202C498.169 293.373 498.339 293.656 498.283 293.94C498.169 294.904 498.113 295.868 498.113 296.833C498.113 297.116 497.943 297.4 497.716 297.513L493.185 299.612C492.845 299.782 492.676 300.122 492.789 300.463L493.695 304.773C493.752 305.114 494.092 305.34 494.431 305.34L499.415 305.397C499.699 305.397 499.982 305.567 500.095 305.851C500.492 306.758 500.945 307.609 501.398 308.46C501.568 308.687 501.511 309.027 501.398 309.254L498.509 313.338C498.283 313.622 498.339 314.019 498.566 314.245L501.511 317.479C501.738 317.762 502.134 317.819 502.417 317.649L506.778 315.21C507.005 315.04 507.345 315.096 507.571 315.266C508.364 315.834 509.157 316.401 510.007 316.855C510.233 317.025 510.403 317.252 510.403 317.535L509.95 322.527C509.893 322.867 510.12 323.207 510.46 323.321L514.594 324.682C514.934 324.795 515.274 324.625 515.444 324.342L517.993 320.031C518.163 319.804 518.446 319.634 518.729 319.691C519.692 319.804 520.655 319.861 521.617 319.861C521.901 319.861 522.184 320.031 522.297 320.258L524.393 324.795C524.563 325.136 524.902 325.306 525.242 325.192L529.49 324.285C529.83 324.228 530.057 323.945 530.057 323.548L530.113 318.556C530.113 318.273 530.283 317.989 530.566 317.876C531.472 317.479 532.322 317.025 533.172 316.571C533.398 316.401 533.738 316.458 533.965 316.571L538.042 319.464C538.326 319.691 538.722 319.634 538.949 319.407L542.177 316.458C542.46 316.231 542.517 315.834 542.347 315.55L539.912 311.183C539.742 310.956 539.798 310.615 539.968 310.389C540.535 309.594 541.101 308.8 541.554 307.95C541.724 307.723 541.95 307.553 542.234 307.553L547.218 308.006C547.558 308.063 547.897 307.836 548.011 307.496L549.37 303.355C549.483 303.015 549.313 302.675 549.03 302.505L544.726 299.952C544.499 299.782 544.329 299.498 544.386 299.215C544.499 298.251 544.556 297.286 544.556 296.322C544.556 296.038 544.726 295.755 544.952 295.641L549.483 293.543C549.823 293.373 549.993 293.032 549.88 292.692L548.974 288.381ZM522.354 311.126C514.311 311.693 507.345 305.624 506.778 297.57C506.212 289.516 512.272 282.539 520.315 281.972C528.357 281.405 535.324 287.474 535.89 295.528C536.513 303.525 530.396 310.559 522.354 311.126Z" fill="white"/>
<path d="M525.016 325.987C524.393 325.987 523.827 325.646 523.6 325.079L521.561 320.598C520.598 320.598 519.636 320.541 518.673 320.428L516.181 324.682C515.784 325.306 515.048 325.59 514.312 325.363L510.177 324.001C509.441 323.775 509.044 323.094 509.101 322.357L509.554 317.422C508.704 316.968 507.911 316.401 507.119 315.834L502.814 318.273C502.134 318.613 501.342 318.5 500.832 317.932L497.887 314.699C497.377 314.132 497.32 313.338 497.773 312.714L500.605 308.687C500.095 307.836 499.699 306.985 499.303 306.135L494.375 306.078C493.639 306.078 493.016 305.567 492.846 304.83L491.94 300.576C491.77 299.839 492.166 299.101 492.846 298.818L497.32 296.776C497.32 295.812 497.377 294.847 497.49 293.883L493.242 291.388C492.619 290.991 492.336 290.253 492.563 289.516L493.922 285.375C494.149 284.638 494.828 284.184 495.564 284.298L500.435 284.751C500.888 283.901 501.455 283.107 502.021 282.312L499.586 278.002C499.246 277.378 499.359 276.527 499.926 276.017L503.154 273.067C503.72 272.557 504.513 272.5 505.136 272.954L509.158 275.79C509.95 275.336 510.857 274.882 511.706 274.485L511.763 269.551C511.763 268.813 512.273 268.189 513.009 268.019L517.257 267.112C517.993 266.941 518.729 267.338 519.012 268.019L521.051 272.5C522.014 272.5 522.977 272.557 523.94 272.67L526.432 268.416C526.829 267.792 527.565 267.509 528.301 267.735L532.436 269.097C533.172 269.324 533.568 270.004 533.512 270.742L533.059 275.676C533.908 276.13 534.701 276.697 535.494 277.264L539.799 274.825C540.422 274.485 541.271 274.599 541.781 275.166L544.726 278.399C545.236 278.966 545.292 279.76 544.839 280.384L542.007 284.411C542.517 285.205 542.914 286.113 543.31 286.963L548.238 287.02C548.974 287.02 549.597 287.531 549.767 288.268L550.673 292.579C550.843 293.316 550.446 294.053 549.767 294.337L545.292 296.379C545.292 297.343 545.236 298.307 545.123 299.272L549.37 301.767C549.993 302.164 550.277 302.902 550.05 303.639L548.691 307.78C548.464 308.517 547.785 308.971 547.048 308.857L542.177 308.403C541.724 309.254 541.158 310.048 540.591 310.842L543.027 315.153C543.367 315.834 543.253 316.628 542.687 317.138L539.459 320.088C538.892 320.598 538.099 320.655 537.476 320.201L533.455 317.365C532.662 317.819 531.756 318.273 530.906 318.67L530.85 323.604C530.85 324.342 530.34 324.966 529.604 325.136L525.356 326.043C525.243 325.93 525.129 325.987 525.016 325.987ZM521.618 318.84C522.241 318.84 522.807 319.18 523.034 319.747L525.073 324.228L529.151 323.377L529.207 318.443C529.207 317.819 529.604 317.252 530.17 317.025C531.02 316.628 531.869 316.231 532.662 315.777C533.229 315.437 533.852 315.493 534.361 315.834L538.383 318.67L541.498 315.834L539.119 311.523C538.836 310.956 538.836 310.332 539.232 309.821C539.799 309.084 540.308 308.29 540.761 307.439C541.045 306.872 541.668 306.588 542.291 306.645L547.161 307.099L548.464 303.129L544.273 300.633C543.763 300.293 543.423 299.725 543.537 299.101C543.65 298.194 543.707 297.23 543.65 296.265C543.65 295.642 543.99 295.074 544.556 294.791L549.031 292.749L548.181 288.665L543.253 288.608C542.63 288.608 542.064 288.211 541.838 287.644C541.441 286.793 541.045 285.942 540.591 285.148C540.252 284.638 540.308 283.957 540.648 283.447L543.48 279.42L540.648 276.3L536.4 278.682C535.834 278.966 535.211 278.966 534.701 278.569C533.965 278.002 533.172 277.491 532.322 277.038C531.756 276.754 531.473 276.13 531.529 275.506L531.983 270.628L528.018 269.324L525.526 273.521C525.186 274.031 524.62 274.372 523.997 274.258C523.09 274.145 522.128 274.088 521.221 274.145C520.598 274.145 520.032 273.804 519.805 273.237L517.766 268.756L513.689 269.607L513.632 274.542C513.632 275.166 513.235 275.733 512.669 275.96C511.819 276.357 510.97 276.754 510.177 277.208C509.611 277.548 508.988 277.491 508.478 277.151L504.457 274.315L501.341 277.151L503.72 281.462C504.003 282.029 504.003 282.653 503.607 283.163C503.041 283.901 502.531 284.695 502.078 285.545C501.795 286.113 501.172 286.396 500.549 286.34L495.508 285.886L494.205 289.856L498.396 292.352C498.906 292.692 499.246 293.259 499.133 293.883C499.019 294.791 498.963 295.755 499.019 296.719C499.019 297.343 498.68 297.91 498.113 298.194L493.639 300.236L494.488 304.32L499.416 304.376C500.039 304.376 500.605 304.773 500.832 305.341C501.228 306.191 501.625 307.042 502.078 307.836C502.418 308.347 502.361 309.027 502.021 309.538L499.189 313.565L502.021 316.685L506.269 314.302C506.835 314.019 507.458 314.019 507.968 314.416C508.704 314.983 509.497 315.493 510.347 315.947C510.913 316.231 511.196 316.855 511.14 317.479L510.687 322.357L514.651 323.661L517.143 319.464C517.483 318.953 518.05 318.613 518.673 318.726C519.692 318.84 520.655 318.897 521.618 318.84ZM521.335 311.977C513.292 311.977 506.496 305.738 505.929 297.57C505.306 289.062 511.763 281.632 520.259 281.065C528.754 280.441 536.174 286.907 536.74 295.415C537.363 303.923 530.906 311.353 522.411 311.92C522.071 311.977 521.674 311.977 521.335 311.977ZM522.297 310.275L522.354 311.126L522.297 310.275C529.887 309.765 535.607 303.129 535.041 295.585C534.531 287.984 527.905 282.256 520.372 282.823C512.782 283.333 507.062 289.97 507.628 297.513C508.138 305.057 514.708 310.786 522.297 310.275Z" fill="#2A3D6E"/>
<path d="M515.84 228.429L513.234 221.055L504.795 222.019C503.889 220.431 502.87 218.9 501.737 217.538L505.702 209.995L499.811 204.89L492.958 209.995C491.372 209.087 489.786 208.293 488.087 207.613L487.804 199.105L480.158 197.63L476.76 205.457C474.947 205.457 473.135 205.571 471.322 205.854L466.791 198.594L459.429 201.203L460.391 209.711C458.806 210.619 457.276 211.64 455.917 212.774L448.384 208.747L443.287 214.646L448.384 221.509C447.478 223.097 446.685 224.742 446.005 226.387L437.51 226.67L436.037 234.327L443.853 237.731C443.853 239.546 443.966 241.361 444.25 243.176L437.057 247.713L439.662 255.087L448.101 254.123C449.007 255.711 450.027 257.242 451.159 258.604L447.195 266.147L453.085 271.252L459.938 266.147C461.524 267.055 463.11 267.849 464.809 268.529L465.092 277.037L472.738 278.512L476.137 270.685C477.949 270.685 479.762 270.571 481.574 270.288L486.105 277.548L493.468 274.939L492.505 266.431C494.091 265.523 495.62 264.502 496.979 263.368L504.512 267.395L509.61 261.496L504.512 254.633C505.418 253.045 506.211 251.4 506.891 249.755L515.387 249.472L516.859 241.814L509.043 238.411C509.043 236.596 508.93 234.781 508.647 232.966L515.84 228.429ZM483.103 257.129C472.625 260.816 461.184 255.257 457.503 244.821C453.821 234.327 459.315 222.87 469.793 219.183C480.271 215.497 491.712 221.055 495.394 231.492C499.075 241.985 493.581 253.442 483.103 257.129Z" fill="#2A3D6E"/>
<path d="M472.796 279.42C472.739 279.42 472.683 279.42 472.626 279.42L464.98 277.945C464.583 277.888 464.3 277.548 464.3 277.151L464.017 269.154C462.658 268.586 461.298 267.962 459.996 267.225L453.596 271.99C453.256 272.216 452.859 272.216 452.52 271.933L446.629 266.828C446.346 266.544 446.233 266.147 446.459 265.807L450.197 258.774C449.291 257.639 448.442 256.392 447.705 255.087L439.776 255.995C439.38 256.051 438.983 255.824 438.87 255.427L436.264 248.054C436.151 247.657 436.264 247.26 436.604 247.033L443.344 242.779C443.118 241.304 443.004 239.829 443.004 238.355L435.698 235.178C435.358 235.008 435.132 234.611 435.188 234.214L436.661 226.557C436.718 226.16 437.057 225.876 437.454 225.876L445.383 225.593C445.95 224.232 446.573 222.87 447.309 221.566L442.551 215.156C442.325 214.816 442.325 214.419 442.608 214.079L447.705 208.18C447.988 207.896 448.385 207.783 448.725 208.01L455.748 211.753C456.881 210.846 458.127 209.995 459.429 209.258L458.523 201.317C458.467 200.92 458.693 200.523 459.09 200.409L466.452 197.8C466.849 197.687 467.245 197.8 467.472 198.141L471.72 204.89C473.192 204.663 474.665 204.55 476.137 204.55L479.309 197.233C479.479 196.893 479.876 196.666 480.272 196.723L487.918 198.197C488.315 198.254 488.598 198.594 488.598 198.991L488.881 206.989C490.24 207.556 491.6 208.18 492.902 208.917L499.302 204.153C499.642 203.926 500.039 203.926 500.378 204.21L506.269 209.314C506.552 209.598 506.665 209.995 506.439 210.335L502.701 217.369C503.607 218.503 504.456 219.751 505.193 221.055L513.122 220.148C513.518 220.091 513.915 220.318 514.028 220.715L516.634 228.089C516.747 228.486 516.634 228.883 516.294 229.109L509.554 233.363C509.78 234.838 509.894 236.313 509.894 237.788L517.2 240.964C517.54 241.134 517.766 241.531 517.71 241.928L516.237 249.585C516.18 249.982 515.841 250.266 515.444 250.266L507.515 250.549C506.948 251.911 506.325 253.272 505.589 254.577L510.347 260.986C510.573 261.326 510.573 261.723 510.29 262.064L505.193 267.962C504.909 268.246 504.513 268.359 504.173 268.133L497.15 264.389C496.017 265.297 494.771 266.147 493.469 266.885L494.375 274.826C494.432 275.223 494.205 275.62 493.808 275.733L486.446 278.342C486.049 278.456 485.653 278.342 485.426 278.002L481.178 271.252C479.706 271.479 478.233 271.592 476.761 271.592L473.589 278.909C473.476 279.25 473.136 279.42 472.796 279.42ZM465.943 276.414L472.286 277.605L475.401 270.401C475.514 270.061 475.854 269.891 476.194 269.891C477.95 269.891 479.706 269.777 481.461 269.494C481.801 269.437 482.141 269.607 482.311 269.891L486.446 276.527L492.506 274.372L491.6 266.544C491.543 266.204 491.713 265.864 492.053 265.694C493.582 264.786 495.055 263.822 496.414 262.688C496.697 262.461 497.037 262.461 497.377 262.574L504.286 266.261L508.478 261.383L503.777 255.087C503.55 254.803 503.55 254.463 503.72 254.123C504.626 252.591 505.363 251.003 505.986 249.358C506.099 249.018 506.382 248.848 506.722 248.791L514.538 248.508L515.727 242.155L508.534 239.035C508.195 238.922 508.025 238.582 508.025 238.241C508.025 236.483 507.911 234.725 507.628 232.966C507.571 232.626 507.741 232.286 508.025 232.116L514.651 227.975L512.499 221.906L504.853 222.927C504.513 222.984 504.173 222.814 504.003 222.473C503.097 220.885 502.134 219.41 501.002 218.106C500.775 217.822 500.775 217.482 500.888 217.198L504.57 210.279L499.699 206.081L493.412 210.789C493.129 211.016 492.789 211.016 492.449 210.846C490.92 209.938 489.334 209.201 487.692 208.577C487.352 208.464 487.182 208.18 487.125 207.84L486.842 200.012L480.499 198.821L477.384 206.025C477.27 206.308 476.93 206.535 476.591 206.535C474.891 206.535 473.079 206.648 471.323 206.932C470.983 206.989 470.644 206.819 470.474 206.535L466.339 199.899L460.279 202.054L461.185 209.882C461.242 210.222 461.072 210.562 460.732 210.732C459.203 211.64 457.73 212.604 456.371 213.738C456.088 213.965 455.748 213.965 455.408 213.852L448.612 209.882L444.42 214.759L449.121 221.055C449.348 221.339 449.348 221.679 449.178 222.02C448.272 223.551 447.535 225.139 446.912 226.784C446.799 227.124 446.516 227.294 446.176 227.351L438.36 227.635L437.171 233.987L444.364 237.107C444.704 237.22 444.873 237.561 444.873 237.901C444.873 239.659 444.987 241.418 445.27 243.176C445.327 243.516 445.157 243.857 444.873 244.027L438.247 248.167L440.399 254.236L448.158 253.329C448.498 253.272 448.838 253.442 449.008 253.783C449.914 255.371 450.877 256.845 452.01 258.15C452.236 258.434 452.236 258.774 452.123 259.057L448.442 265.977L453.312 270.174L459.599 265.467C459.882 265.24 460.222 265.24 460.562 265.41C462.091 266.318 463.677 267.055 465.32 267.679C465.66 267.792 465.829 268.076 465.886 268.416L465.943 276.414ZM476.421 259.114C473.306 259.114 470.247 258.434 467.359 257.016C462.318 254.577 458.523 250.323 456.654 245.048C452.859 234.158 458.58 222.133 469.454 218.333C474.722 216.461 480.385 216.801 485.426 219.24C490.467 221.679 494.262 225.933 496.131 231.208C499.925 242.098 494.205 254.123 483.331 257.923C481.122 258.717 478.743 259.114 476.421 259.114ZM476.477 218.843C474.325 218.843 472.173 219.184 470.077 219.921C460.052 223.438 454.785 234.441 458.297 244.48C459.996 249.358 463.507 253.215 468.095 255.484C472.739 257.696 477.95 257.98 482.764 256.278C492.789 252.762 498.056 241.758 494.545 231.719C492.846 226.841 489.334 222.984 484.746 220.715C482.141 219.524 479.309 218.843 476.477 218.843Z" fill="#2A3D6E"/>
<path d="M243.186 575.838L163.837 575.043C149.507 575.043 137.217 565.685 134.725 551.391L121.075 474.196C119.433 465.007 126.456 456.556 135.688 456.556H187.455L243.186 575.838Z" fill="#D3D9E8"/>
<path d="M244.489 576.688L163.78 575.894C148.658 575.894 136.311 565.855 133.819 551.505L120.226 474.309C119.433 469.658 120.679 464.894 123.68 461.264C126.682 457.69 131.043 455.648 135.631 455.648H187.964L244.489 576.688ZM135.688 457.407C131.553 457.407 127.702 459.222 124.983 462.398C122.265 465.631 121.132 469.885 121.868 474.026L135.461 551.221C137.84 564.72 149.451 574.193 163.78 574.193L241.77 574.987L186.888 457.407H135.688Z" fill="#2A3D6E"/>
<path d="M195.837 650.934H182.754V574.873L195.837 575.27V650.934Z" fill="#D3D9E8"/>
<path d="M196.687 651.785H181.904V574.022L196.687 574.476V651.785ZM183.603 650.083H194.988V576.121L183.603 575.781V650.083Z" fill="#2A3D6E"/>
<path d="M220.135 643.504H161.402C152.226 643.504 144.807 650.934 144.807 660.123H236.73C236.73 650.934 229.31 643.504 220.135 643.504Z" fill="#D3D9E8"/>
<path d="M237.579 660.917H143.957V660.066C143.957 650.423 151.773 642.596 161.401 642.596H220.135C229.763 642.596 237.579 650.423 237.579 660.066V660.917ZM145.656 659.215H235.824C235.37 650.934 228.517 644.298 220.078 644.298H161.401C153.019 644.355 146.109 650.934 145.656 659.215Z" fill="#2A3D6E"/>
<path d="M142.54 517.019C142.144 517.019 141.804 516.736 141.69 516.339L135.12 478.847C135.064 478.393 135.347 477.939 135.8 477.883C136.253 477.826 136.706 478.11 136.763 478.563L143.333 516.055C143.39 516.509 143.106 516.963 142.653 517.019C142.653 516.963 142.597 517.019 142.54 517.019Z" fill="#2A3D6E"/>
<path d="M203.711 432.223C203.711 432.223 211.867 422.297 220.249 427.232C225.12 430.124 229.368 435.002 235.994 438.065C238.77 439.313 240.356 439.597 240.356 439.597C240.356 439.597 235.768 442.376 222.571 442.83C209.488 443.283 203.711 432.223 203.711 432.223Z" fill="#2A3D6E"/>
<path d="M226.989 423.602C220.305 422.524 216.227 415.888 214.981 412.201C214.132 409.706 214.585 408.344 214.812 407.777C215.718 405.735 217.983 404.998 218.946 404.658C227.442 401.595 227.782 395.129 234.408 394.448C239.789 393.881 239.902 398.078 248.851 398.872C250.663 399.042 253.439 399.099 256.214 400.914C257.573 401.765 259.442 403.013 259.725 404.658C260.008 406.359 258.649 408.912 241.148 418.27C231.123 423.545 229.254 423.942 226.989 423.602Z" fill="#2A3D6E"/>
<path d="M244.658 411.861C244.658 411.861 234.86 408.287 231.462 408.458C228.063 408.684 228.177 417.363 228.177 417.363C228.177 417.363 224.665 413.392 222.57 415.945C220.474 418.497 225.911 421.39 225.911 421.39L208.693 437.158L224.665 441.298L232.764 432.45C232.764 432.45 235.483 435.57 237.975 434.946C240.467 434.322 244.035 427.799 244.035 427.799C245.395 427.572 246.244 426.268 245.904 424.963L245.281 422.637C244.885 421.219 244.885 419.688 245.225 418.27C245.678 416.342 245.565 414.356 244.885 412.485L244.658 411.861Z" fill="white"/>
<path d="M224.723 442.149C224.666 442.149 224.553 442.149 224.496 442.149L208.524 438.009C208.241 437.952 208.015 437.668 207.901 437.385C207.845 437.101 207.901 436.761 208.128 436.534L224.496 421.503C223.363 420.766 221.608 419.348 221.268 417.703C221.098 416.852 221.324 416.058 221.891 415.377C222.514 414.64 223.307 414.243 224.156 414.186C225.346 414.13 226.478 414.81 227.328 415.434C227.498 412.598 228.291 407.777 231.349 407.55C234.918 407.323 244.489 410.84 244.886 411.01C245.112 411.067 245.282 411.294 245.396 411.52L245.622 412.144C246.358 414.13 246.528 416.342 246.019 418.44C245.679 419.745 245.735 421.106 246.075 422.411L246.698 424.736C246.925 425.587 246.811 426.494 246.302 427.289C245.905 427.912 245.282 428.366 244.603 428.593C243.64 430.238 240.695 435.173 238.203 435.853C236.05 436.42 233.898 434.776 232.822 433.755L225.346 441.922C225.176 442.092 224.949 442.149 224.723 442.149ZM210.507 436.761L224.44 440.391L232.199 431.94C232.369 431.769 232.595 431.656 232.822 431.656C233.048 431.656 233.275 431.769 233.445 431.94C234.125 432.677 236.164 434.605 237.749 434.152C239.279 433.755 241.997 429.784 243.3 427.402C243.413 427.175 243.64 427.005 243.923 426.948C244.319 426.891 244.659 426.665 244.886 426.324C245.112 425.984 245.169 425.587 245.056 425.19L244.433 422.864C244.036 421.276 243.98 419.631 244.376 418.1C244.829 416.342 244.716 414.527 244.036 412.825L243.923 412.598C240.978 411.52 233.955 409.252 231.406 409.365C229.424 409.479 228.914 414.81 228.914 417.419C228.914 417.76 228.687 418.1 228.348 418.213C228.008 418.327 227.611 418.27 227.385 417.986C226.932 417.476 225.346 416.001 224.156 416.001C224.156 416.001 224.156 416.001 224.1 416.001C223.703 416.001 223.363 416.171 223.08 416.568C222.854 416.852 222.74 417.192 222.797 417.476C223.024 418.667 225.006 420.085 226.139 420.709C226.365 420.822 226.535 421.106 226.592 421.333C226.648 421.617 226.535 421.9 226.309 422.07L210.507 436.761Z" fill="#2A3D6E"/>
<path d="M232.823 433.358C232.596 433.358 232.369 433.244 232.2 433.074C229.934 430.465 229.481 427.913 229.424 427.799C229.311 427.346 229.651 426.892 230.104 426.778C230.557 426.665 231.01 427.005 231.123 427.459C231.123 427.516 231.577 429.671 233.502 431.94C233.785 432.28 233.785 432.847 233.389 433.131C233.219 433.244 232.992 433.358 232.823 433.358Z" fill="#2A3D6E"/>
<path d="M250.039 635.223C251.172 634.088 257.685 613.726 257.685 613.726L270.599 622.971L256.439 642.029L250.039 635.223Z" fill="white"/>
<path d="M256.497 642.823C256.271 642.823 256.044 642.71 255.874 642.54L249.474 635.79C249.191 635.45 249.191 634.939 249.474 634.599C250.21 633.578 253.892 622.972 256.95 613.443C257.007 613.159 257.233 612.989 257.517 612.875C257.8 612.762 258.083 612.819 258.253 612.989L271.166 622.234C271.336 622.348 271.45 622.574 271.506 622.801C271.563 623.028 271.506 623.255 271.336 623.425L257.177 642.483C257.007 642.71 256.78 642.823 256.497 642.823ZM251.117 635.053L256.384 640.611L269.411 623.085L258.196 615.088C256.497 620.249 252.702 631.933 251.117 635.053Z" fill="#2A3D6E"/>
<path d="M273.316 660.917L264.764 660.86C259.1 660.803 253.833 657.911 250.718 653.146L242.222 639.704C239.9 635.96 241.203 631.082 245.054 628.984C248.622 627.112 252.304 625.24 253.153 625.354C254.909 625.524 255.645 633.861 255.645 633.861L263.291 634.145C263.291 634.145 267.086 649.856 270.371 651.671C272.807 652.976 274.506 654.904 275.639 656.606C276.828 658.535 275.469 660.917 273.316 660.917Z" fill="#2A3D6E"/>
<path d="M272.466 658.421C272.409 658.421 272.409 658.421 272.352 658.421L260.628 656.663C257.74 656.209 255.191 654.507 253.718 652.012L243.354 634.655C243.127 634.258 243.24 633.748 243.637 633.464C244.033 633.237 244.543 633.351 244.826 633.748L255.191 651.104C256.437 653.203 258.533 654.564 260.911 654.961L272.635 656.719C273.089 656.776 273.428 657.23 273.372 657.684C273.202 658.137 272.862 658.421 272.466 658.421Z" fill="white"/>
<path d="M257.968 645.375C257.572 645.375 257.232 645.149 257.175 644.752C257.062 644.298 257.345 643.844 257.798 643.731L264.312 641.972C264.765 641.859 265.218 642.142 265.331 642.596C265.444 643.05 265.161 643.504 264.708 643.617L258.195 645.375C258.138 645.375 258.025 645.375 257.968 645.375Z" fill="white"/>
<path d="M261.367 648.722C260.97 648.722 260.63 648.439 260.517 648.098C260.404 647.644 260.687 647.191 261.14 647.077L265.501 646C265.954 645.886 266.408 646.17 266.521 646.624C266.634 647.077 266.351 647.531 265.898 647.644L261.537 648.722C261.48 648.722 261.423 648.722 261.367 648.722Z" fill="white"/>
<path d="M294.104 631.309L309.056 646.397L316.985 643.447L303.222 624.219L294.104 631.309Z" fill="white"/>
<path d="M309.055 647.247C308.828 647.247 308.602 647.134 308.432 647.021L293.48 631.933C293.31 631.763 293.196 631.536 293.253 631.253C293.253 631.026 293.366 630.799 293.593 630.629L302.712 623.482C302.881 623.312 303.108 623.255 303.335 623.312C303.561 623.369 303.788 623.482 303.901 623.652L317.721 642.937C317.89 643.164 317.947 643.447 317.834 643.674C317.777 643.901 317.551 644.128 317.324 644.241L309.395 647.134C309.282 647.247 309.168 647.247 309.055 647.247ZM295.349 631.423L309.282 645.432L315.682 643.107L303.051 625.467L295.349 631.423Z" fill="#2A3D6E"/>
<path d="M304.355 644.014C304.355 644.014 303.618 650.424 304.864 656.096C305.544 659.102 308.263 661.257 311.321 661.257H348.079C350.684 661.257 351.874 657.968 349.891 656.266C343.378 650.764 331.314 642.426 316.532 639.931L312.397 645.716L304.355 644.014Z" fill="#2A3D6E"/>
<path d="M346.324 657.06H308.207C307.754 657.06 307.357 656.663 307.357 656.209C307.357 655.755 307.754 655.358 308.207 655.358H346.324C346.777 655.358 347.174 655.755 347.174 656.209C347.174 656.663 346.777 657.06 346.324 657.06Z" fill="white"/>
<path d="M325.027 650.254C324.914 650.254 324.801 650.253 324.688 650.197C324.235 650.027 324.065 649.516 324.235 649.062L326.274 644.184C326.443 643.731 326.953 643.561 327.406 643.731C327.859 643.901 328.029 644.411 327.859 644.865L325.82 649.743C325.707 650.083 325.367 650.254 325.027 650.254Z" fill="white"/>
<path d="M331.654 651.558C331.541 651.558 331.484 651.558 331.371 651.502C330.918 651.332 330.691 650.878 330.804 650.424L332.277 646C332.447 645.546 332.9 645.319 333.353 645.433C333.806 645.603 334.033 646.057 333.919 646.51L332.447 650.934C332.39 651.332 332.05 651.558 331.654 651.558Z" fill="white"/>
<path d="M214.81 525.867C214.81 525.867 283.285 517.87 303.618 535.51C323.951 553.149 271.505 629.04 271.505 629.04L254.91 616.732L270.655 563.075L207.334 545.095L214.81 525.867Z" fill="#2A3D6E"/>
<path d="M177.146 560.807C187.114 563.983 204.899 568.067 229.763 567.726C236.842 567.613 243.356 571.527 246.584 577.823C253.947 592.286 269.919 618.32 295.859 635.223L308.263 628.53L276.602 557.177C273.714 550.654 268.333 545.606 261.65 543.167L198.895 520.139C198.895 520.139 179.468 514.694 169.897 532.106C168.197 535.226 167.008 538.005 166.272 540.501C163.666 549.009 168.594 558.084 177.146 560.807Z" fill="#2A3D6E"/>
<path d="M290.876 590.244C290.536 590.244 290.253 590.074 290.083 589.734L275.753 557.517C272.978 551.221 267.711 546.286 261.254 543.961L231.236 532.901C230.783 532.73 230.556 532.277 230.726 531.823C230.896 531.369 231.349 531.142 231.802 531.312L261.82 542.373C268.674 544.868 274.337 550.2 277.283 556.836L291.612 589.11C291.782 589.563 291.612 590.017 291.159 590.244C291.102 590.244 290.989 590.244 290.876 590.244Z" fill="white"/>
<path d="M274.167 617.98C273.941 617.98 273.714 617.867 273.544 617.697C270.656 614.69 267.824 611.457 265.105 608.111C264.822 607.771 264.879 607.203 265.218 606.92C265.558 606.636 266.125 606.693 266.408 607.033C269.07 610.38 271.902 613.556 274.734 616.505C275.073 616.846 275.073 617.356 274.734 617.697C274.564 617.867 274.394 617.98 274.167 617.98Z" fill="white"/>
<path d="M265.784 608.451C265.558 608.451 265.274 608.338 265.105 608.111C263.802 606.466 262.443 604.764 261.14 603.006C260.857 602.609 260.913 602.099 261.31 601.815C261.706 601.531 262.216 601.588 262.499 601.985C263.802 603.687 265.105 605.388 266.407 607.033C266.69 607.373 266.634 607.941 266.294 608.224C266.124 608.394 265.954 608.451 265.784 608.451Z" fill="white"/>
<path d="M304.185 417.817C304.525 417.136 306.224 415.094 307.017 414.527L315.23 406.87C315.23 406.87 316.306 410.556 315.003 412.712C317.552 412.768 319.534 413.222 319.534 413.222C319.534 413.222 323.272 409.933 324.235 409.309C325.198 408.741 326.387 407.834 327.633 407.834C328.879 407.834 330.126 408.798 330.126 408.798L322.932 418.043L309.793 421.673L307.074 444.305L301.07 436.25L304.185 417.817Z" fill="white"/>
<path d="M307.074 445.156C306.791 445.156 306.564 445.042 306.394 444.815L300.391 436.761C300.277 436.591 300.221 436.364 300.221 436.137L303.336 417.703C303.336 417.646 303.392 417.533 303.392 417.476C303.789 416.682 305.545 414.584 306.451 413.903L314.663 406.303C314.89 406.076 315.173 406.019 315.456 406.132C315.739 406.189 315.966 406.416 316.023 406.7C316.079 406.813 316.872 409.649 316.193 412.031C317.552 412.145 318.628 412.315 319.251 412.428C320.214 411.577 322.932 409.252 323.725 408.742C323.839 408.685 324.009 408.571 324.122 408.515C325.085 407.891 326.274 407.153 327.577 407.153C329.106 407.153 330.465 408.174 330.579 408.288C330.748 408.401 330.862 408.628 330.918 408.855C330.918 409.082 330.862 409.309 330.748 409.479L323.499 418.667C323.386 418.838 323.216 418.894 323.046 418.951L310.472 422.411L307.81 444.475C307.754 444.815 307.527 445.099 307.187 445.212C307.187 445.156 307.131 445.156 307.074 445.156ZM301.976 436.08L306.451 442.093L308.943 421.56C309 421.22 309.226 420.936 309.566 420.823L322.423 417.249L328.879 409.082C328.483 408.912 328.03 408.742 327.633 408.742C326.784 408.742 325.878 409.309 325.085 409.819C324.915 409.933 324.802 409.989 324.688 410.103C324.065 410.5 321.63 412.598 320.101 413.903C319.874 414.073 319.647 414.13 319.364 414.073C319.364 414.073 317.382 413.676 315.003 413.563C314.72 413.563 314.437 413.393 314.267 413.109C314.097 412.825 314.154 412.542 314.267 412.258C314.89 411.237 314.833 409.706 314.72 408.515L307.584 415.151L307.527 415.208C306.904 415.661 305.375 417.42 304.978 418.1L301.976 436.08Z" fill="#2A3D6E"/>
<path d="M237.126 442.036C237.126 442.036 250.493 455.195 275.866 452.189C301.24 449.239 301.976 422.694 301.976 422.694H310.302C310.302 422.694 322.593 469.034 278.698 483.611C234.804 498.188 220.475 472.608 220.475 472.608L237.126 442.036Z" fill="#FF7A00"/>
<path d="M201.786 549.576C201.786 549.576 174.77 560.353 159.591 549.974C140.391 536.815 150.415 499.38 157.212 483.612C163.272 469.659 172.504 459.903 186.041 445.496C189.892 441.412 192.271 439.257 195.839 437.555C209.998 430.749 227.16 438.463 235.599 442.263C241.999 445.156 246.926 448.332 250.211 450.714C250.211 450.714 223.138 484.179 223.648 504.484C224.214 524.79 232.54 523.939 232.54 523.939C232.54 523.939 221.099 542.43 201.786 549.576Z" fill="#FF7A00"/>
<path d="M224.212 454.741C225.005 460.81 226.817 468.467 231.178 476.351C245.111 501.535 273.147 507.604 278.697 508.682L273.147 514.864C273.147 514.864 213.677 524.62 196.402 470.226C196.402 470.226 189.833 449.92 204.445 444.872C207.504 443.851 211.468 443.227 215.263 444.702C221.89 447.254 223.985 453.834 224.212 454.741Z" fill="#FF7A00"/>
<path d="M272.58 513.673C273.033 513.389 277.168 506.98 281.755 505.619C286.343 504.257 296.255 514.297 296.255 514.297L272.58 513.673Z" fill="white"/>
<path d="M296.199 515.148L272.524 514.524C272.128 514.524 271.845 514.24 271.731 513.9C271.618 513.559 271.788 513.219 272.015 512.992C272.128 512.879 272.354 512.538 272.581 512.255C274.054 510.383 277.565 505.902 281.416 504.768C286.344 503.293 295.689 512.595 296.765 513.673C296.992 513.9 297.105 514.297 296.935 514.637C296.879 514.921 296.539 515.148 296.199 515.148ZM274.337 512.822L294.047 513.333C290.195 509.759 284.588 505.619 281.983 506.356C278.924 507.32 275.866 510.894 274.337 512.822Z" fill="#2A3D6E"/>
<path d="M185.133 446.574C185.133 446.574 176.581 431.202 207.335 429.387C212.433 429.104 214.075 429.784 221.212 433.868C236.617 442.66 240.412 439.654 240.412 439.654L237.127 450.26L185.133 446.574Z" fill="#FF7A00"/>
<path d="M188.871 444.758C188.758 444.758 188.588 444.702 188.475 444.645C188.078 444.418 187.908 443.908 188.135 443.511C188.191 443.34 196.687 428.253 214.641 435.683C215.094 435.853 215.264 436.364 215.094 436.818C214.924 437.271 214.415 437.442 213.962 437.271C197.423 430.465 189.89 443.737 189.607 444.305C189.437 444.588 189.154 444.758 188.871 444.758Z" fill="#2A3D6E"/>
<path d="M223.703 505.335C223.533 505.335 223.363 505.278 223.193 505.165C222.117 504.371 197.423 486.107 193.742 465.745C193.685 465.291 193.968 464.837 194.421 464.781C194.874 464.724 195.327 465.008 195.384 465.461C198.952 485.143 223.93 503.634 224.213 503.804C224.609 504.087 224.666 504.598 224.383 504.995C224.213 505.222 223.93 505.335 223.703 505.335Z" fill="#2A3D6E"/>
<path d="M234.238 483.385C234.011 483.385 233.842 483.328 233.672 483.158C233.332 482.818 233.275 482.307 233.615 481.967C242.451 472.098 240.865 458.144 240.808 457.974C240.751 457.521 241.091 457.067 241.544 457.01C241.997 456.953 242.451 457.294 242.507 457.747C242.564 458.371 244.206 472.608 234.861 483.044C234.691 483.328 234.465 483.385 234.238 483.385Z" fill="#2A3D6E"/>
<path d="M232.822 480.605C232.539 480.605 232.199 480.435 232.086 480.152L223.647 463.249C223.42 462.852 223.59 462.342 224.043 462.115C224.44 461.888 224.949 462.058 225.176 462.512L233.615 479.414C233.842 479.811 233.672 480.322 233.219 480.549C233.105 480.549 232.935 480.605 232.822 480.605Z" fill="#2A3D6E"/>
<path d="M176.92 555.362C170.634 555.362 164.29 554.171 159.136 550.654C150.584 544.812 146.676 533.411 147.809 517.7C148.772 504.881 152.906 491.495 156.474 483.271C162.421 469.545 171.54 459.789 184.17 446.403C183.547 445.042 183.264 442.773 183.264 442.376C183.094 437.725 185.983 429.784 207.335 428.48C212.602 428.14 214.301 428.877 221.608 433.074C235.937 441.299 239.845 438.916 239.902 438.916C240.185 438.689 240.581 438.689 240.921 438.916C241.204 439.143 241.374 439.54 241.261 439.881L240.185 443.397C240.525 443.624 240.865 443.908 241.261 444.191C242.79 445.042 244.206 445.893 245.622 446.744C251.796 449.806 262.047 453.153 275.81 451.565C286.005 450.374 293.368 445.269 297.672 436.307C300.957 429.614 301.184 423.148 301.184 423.092C301.184 422.638 301.58 422.241 302.033 422.241H310.303C310.699 422.241 311.039 422.524 311.095 422.865C311.209 423.318 314.211 434.719 311.775 448.162C309.51 460.583 302.033 476.975 278.925 484.689L278.642 483.895L278.925 484.689C264.199 489.567 251.229 490.474 240.185 487.412C253.495 501.592 271.449 506.469 278.812 507.944C279.095 508.001 279.378 508.228 279.435 508.511C279.548 508.795 279.492 509.135 279.265 509.362L273.715 515.545C273.601 515.715 273.431 515.771 273.205 515.828C272.922 515.885 247.038 519.912 224.553 507.434C225.176 516.339 227.498 520.196 229.367 521.897C230.953 523.315 232.312 523.258 232.369 523.202C232.709 523.202 232.992 523.315 233.162 523.599C233.332 523.882 233.332 524.223 233.162 524.506C233.049 524.676 221.268 543.337 201.954 550.484C201.388 550.654 189.381 555.362 176.92 555.362ZM209.317 430.125C208.751 430.125 208.128 430.125 207.448 430.181C195.838 430.862 188.418 433.641 185.926 438.236C183.774 442.093 185.983 446.12 185.983 446.12C186.152 446.46 186.096 446.857 185.869 447.141C173.126 460.64 163.95 470.396 158.06 483.952C152.113 497.678 140.899 536.134 160.099 549.236C174.768 559.275 201.218 548.896 201.501 548.782C217.586 542.827 228.291 528.647 231.123 524.563C230.387 524.336 229.424 523.939 228.461 523.088C225.176 520.252 223.307 514.41 222.91 505.845C222.91 505.562 223.08 505.222 223.307 505.051C223.59 504.881 223.93 504.881 224.156 505.051C245.169 517.416 269.807 514.467 272.752 514.013L277.113 509.192C268.391 507.263 249.927 501.592 236.9 486.107C236.673 485.823 236.617 485.37 236.843 485.086C237.07 484.746 237.466 484.632 237.806 484.746C249.077 488.773 262.727 488.206 278.415 482.987C296.313 477.032 306.961 465.178 310.133 447.821C312.172 436.534 310.189 426.495 309.623 423.942H302.77C302.373 428.537 299.202 450.544 275.98 453.21C261.821 454.855 251.229 451.395 244.829 448.218C244.829 448.218 244.773 448.218 244.773 448.162C243.357 447.311 241.941 446.46 240.411 445.609C240.411 445.609 240.355 445.609 240.355 445.553C239.732 445.155 239.165 444.758 238.712 444.361L238.656 444.305C238.373 444.078 238.259 443.737 238.373 443.397L239.165 440.845C236.73 441.185 231.349 440.561 220.815 434.492C214.641 431.032 212.829 430.125 209.317 430.125Z" fill="#2A3D6E"/>
<path d="M354.82 512.595H304.469L341.793 455.081C342.982 453.266 344.965 452.188 347.174 452.188H388.066C390.671 452.188 392.257 454.968 390.841 457.123L354.82 512.595Z" fill="#2A3D6E"/>
<path d="M365.579 472.381C363.937 474.876 360.425 476.918 357.707 476.918C354.988 476.918 354.139 474.876 355.781 472.381C357.424 469.885 360.935 467.843 363.654 467.843C366.372 467.843 367.222 469.885 365.579 472.381Z" fill="white"/>
<path d="M351.025 517.416H264.765C262.557 517.416 260.744 515.601 260.744 513.389V512.198H355.046V513.389C355.046 515.601 353.234 517.416 351.025 517.416Z" fill="#2A3D6E"/>
<path d="M352.215 513.502H308.943C308.49 513.502 308.094 513.105 308.094 512.652C308.094 512.198 308.49 511.801 308.943 511.801H352.215C352.668 511.801 353.064 512.198 353.064 512.652C353.064 513.105 352.668 513.502 352.215 513.502Z" fill="white"/>
<path d="M377.021 517.473H188.134C184.622 517.473 181.904 521.159 182.3 525.357L195.327 663.299H204.729L196.573 533.808C196.403 531.539 197.932 529.554 199.801 529.554H361.955C364.787 529.554 367.053 532.447 366.826 535.907L358.727 664.093H368.129L381.382 523.372C381.722 520.252 379.683 517.473 377.021 517.473Z" fill="white"/>
<path d="M368.185 665.001H358.783C358.557 665.001 358.33 664.887 358.16 664.717C357.99 664.547 357.934 664.32 357.934 664.093L366.033 535.907C366.146 534.262 365.636 532.73 364.617 531.709C363.881 530.915 362.974 530.518 362.012 530.518H199.801C199.065 530.518 198.555 530.915 198.272 531.256C197.649 531.88 197.366 532.901 197.422 533.865L205.578 663.356C205.578 663.583 205.521 663.809 205.351 663.98C205.182 664.15 204.955 664.263 204.728 664.263H195.327C194.873 664.263 194.534 663.923 194.477 663.469L181.45 525.527C181.224 522.975 181.96 520.536 183.546 518.834C184.792 517.473 186.434 516.679 188.134 516.679H377.077C378.437 516.679 379.739 517.303 380.702 518.38C381.948 519.742 382.515 521.613 382.345 523.598L369.091 664.32C368.978 664.66 368.638 665.001 368.185 665.001ZM359.69 663.299H367.449L380.645 523.372C380.759 521.897 380.306 520.422 379.456 519.458C378.776 518.721 377.984 518.324 377.077 518.324H188.134C186.888 518.324 185.698 518.891 184.792 519.912C183.546 521.273 182.923 523.315 183.149 525.3L196.063 662.505H203.822L195.723 533.921C195.61 532.447 196.12 531.029 197.026 530.065C197.762 529.27 198.781 528.817 199.801 528.817H361.955C363.371 528.817 364.73 529.441 365.806 530.575C367.109 531.993 367.789 533.978 367.675 536.077L359.69 663.299Z" fill="#2A3D6E"/>
<path d="M297.559 232.796C297.219 232.796 296.936 232.626 296.766 232.286C296.539 231.889 296.766 231.378 297.162 231.151C334.317 213.398 382.346 207.499 413.383 209.541C413.836 209.598 414.233 209.995 414.176 210.449C414.119 210.902 413.723 211.243 413.27 211.243C382.402 209.201 334.77 215.1 297.899 232.739C297.842 232.739 297.729 232.796 297.559 232.796Z" fill="#2A3D6E"/>
<path d="M304.129 221.793C303.789 221.793 303.506 221.622 303.393 221.339C303.166 220.942 303.336 220.431 303.789 220.204C330.126 207.272 362.183 203.359 373.567 203.472C374.02 203.472 374.417 203.869 374.417 204.323C374.417 204.777 374.02 205.174 373.567 205.174C362.296 205.06 330.636 208.917 304.526 221.736C304.412 221.793 304.299 221.793 304.129 221.793Z" fill="#2A3D6E"/>
<path d="M443.571 593.987C443.288 593.987 443.062 593.874 442.892 593.647C442.608 593.25 442.722 592.739 443.118 592.456C458.014 582.189 470.871 571.129 481.235 559.615C481.575 559.275 482.085 559.218 482.425 559.558C482.765 559.899 482.821 560.409 482.482 560.749C472.06 572.32 459.09 583.494 444.081 593.817C443.911 593.93 443.741 593.987 443.571 593.987Z" fill="#2A3D6E"/>
<path d="M412.931 623.935C412.591 623.935 412.251 623.708 412.138 623.368C411.968 622.914 412.251 622.46 412.704 622.29C427.317 617.639 462.319 599.262 480.953 576.12C481.236 575.78 481.802 575.723 482.142 576.007C482.482 576.29 482.539 576.858 482.255 577.198C462.262 601.984 426.467 619.624 413.214 623.878C413.101 623.935 412.987 623.935 412.931 623.935Z" fill="#2A3D6E"/>
<path d="M404.548 606.863C404.492 606.863 404.435 606.863 404.378 606.863C403.925 606.749 403.642 606.295 403.699 605.842L404.492 602.041C404.605 601.588 405.058 601.304 405.511 601.361C405.964 601.474 406.247 601.928 406.191 602.382L405.398 606.182C405.284 606.579 404.945 606.863 404.548 606.863Z" fill="#2A3D6E"/>
<path d="M401.886 620.135C401.829 620.135 401.773 620.135 401.716 620.135C401.263 620.022 400.98 619.568 401.036 619.114L401.829 615.314C401.943 614.86 402.396 614.576 402.849 614.633C403.302 614.747 403.585 615.2 403.529 615.654L402.736 619.454C402.622 619.851 402.283 620.135 401.886 620.135Z" fill="#2A3D6E"/>
<path d="M398.941 610.549C398.884 610.549 398.827 610.549 398.771 610.549L395.033 609.755C394.58 609.642 394.296 609.188 394.41 608.734C394.523 608.281 394.976 607.997 395.429 608.11L399.167 608.905C399.62 609.018 399.904 609.472 399.79 609.925C399.677 610.323 399.337 610.549 398.941 610.549Z" fill="#2A3D6E"/>
<path d="M411.966 613.442C411.91 613.442 411.853 613.442 411.796 613.442L408.058 612.648C407.605 612.534 407.322 612.081 407.435 611.627C407.548 611.173 408.002 610.89 408.455 611.003L412.193 611.797C412.646 611.911 412.929 612.364 412.816 612.818C412.702 613.158 412.363 613.442 411.966 613.442Z" fill="#2A3D6E"/>
<path d="M430.43 605.955C429.807 605.955 429.184 605.841 428.561 605.614C427.258 605.104 426.182 604.083 425.616 602.722C424.426 599.999 425.672 596.823 428.334 595.632C429.637 595.065 431.053 595.008 432.356 595.518C433.658 596.029 434.735 597.05 435.301 598.411C436.49 601.134 435.244 604.31 432.582 605.501C431.903 605.785 431.166 605.955 430.43 605.955ZM429.014 597.163C427.202 597.957 426.352 600.169 427.202 602.041C427.598 602.949 428.278 603.629 429.184 603.97C430.09 604.31 430.996 604.31 431.903 603.913C433.715 603.119 434.565 600.907 433.715 599.035C433.319 598.127 432.639 597.447 431.733 597.107C430.827 596.766 429.864 596.766 429.014 597.163Z" fill="#2A3D6E"/>
</g>
</g>
<defs>
<clipPath id="clip0_12268_66196">
<rect width="710" height="860" fill="white"/>
</clipPath>
<clipPath id="clip1_12268_66196">
<rect width="471" height="471" fill="white" transform="translate(120 194)"/>
</clipPath>
</defs>
</svg>
